PathFileType	4	(X/Y/Z)	pose_F01_0-89.trc
DataRate	CameraRate	NumFrames	NumMarkers	Units	OrigDataRate	OrigDataStartFrame	OrigNumFrames
30	30	6	21	m	30	0	89
Frame#	Time	CHip			RHip			RKnee			RAnkle			RBigToe			RSmallToe			RHeel			LHip			LKnee			LAnkle			LBigToe			LSmallToe			LHeel			Neck			Nose			RShoulder			RElbow			RWrist			LShoulder			LElbow			LWrist			
		X1	Y1	Z1	X2	Y2	Z2	X3	Y3	Z3	X4	Y4	Z4	X5	Y5	Z5	X6	Y6	Z6	X7	Y7	Z7	X8	Y8	Z8	X9	Y9	Z9	X10	Y10	Z10	X11	Y11	Z11	X12	Y12	Z12	X13	Y13	Z13	X14	Y14	Z14	X15	Y15	Z15	X16	Y16	Z16	X17	Y17	Z17	X18	Y18	Z18	X19	Y19	Z19	X20	Y20	Z20	X21	Y21	Z21	
0	0.0	-0.18573011736426548	1.8262356457675748	-0.6182768801754459	-0.1956710603560807	1.810308473393781	-0.5432192245052919	-0.1679440573529893	1.6832928401724763	-0.49821867116234053	-0.1689055288077177	1.5525715956102661	-0.5114257335815267	-0.21308431244529322	1.5372819007250178	-0.49148030452489905	-0.2159960588186661	1.5445691385327633	-0.40866386059612914	-0.17772421304755487	1.556195444906472	-0.5230897999174743	-0.16010218468829304	1.8279212695224734	-0.6821664336979473	-0.1457270960391109	1.6809194500993143	-0.6545744228367187	-0.13052461820699793	1.555517503511029	-0.6509383463291751	-0.17104927626956287	1.533849367713108	-0.6644095859555239	-0.2766328438410143	1.4692245927267595	-1.1233697585912887	-0.2508238051493799	1.504711490522881	-1.1843381028903328	-1.6687995308157246	1.88985834178509	1.0395297002482433	-0.20605629943652629	2.032420621947172	-0.6149882927516219	-1.8112807715302033	1.8901737094324615	1.2847194941012787	-0.2248980010178836	1.922520628816392	-0.5450691672603225	-1.5497475757300956	1.8817293723297552	0.8200226068999238	-1.4923799571441068	1.8920067956861362	0.7538259107353762	-0.140251376205206	1.9159302206751474	-0.7545597988638537	-0.16187696876789384	1.8532918512102947	-0.7324828878090981
1	0.03333333333333333	-0.1787289767116389	1.8266362926186877	-0.622210960532643	-0.18960760325924883	1.8133005151537596	-0.5504328095813856	-0.1675952593526645	1.686123323240343	-0.5076156000515752	-0.1694987941622865	1.556612728065296	-0.5105741822200432	-0.21319109415031717	1.5375882613290806	-0.4912843820439618	-0.21452926589376473	1.545692059231287	-0.41461861272383477	-0.1755420223980363	1.5580191266988244	-0.5208291874539879	-0.15559376814485612	1.8281304305945616	-0.6869005464884361	-0.14343666249880563	1.6837212842837035	-0.6574209038285461	-0.13039195896478176	1.5579050411586215	-0.6513130783254204	-0.17214131812501746	1.5353182544423898	-0.6594662520748027	-0.2789773952239434	1.47257799029222	-1.1204145142212631	-0.2507459539532791	1.5038777873027347	-1.184557135700983	-1.6355482848812317	1.890131926086131	0.9841824115596703	-0.2017582961008909	2.032272913919463	-0.6195536416122776	-1.7896227931701072	1.8899929046941308	1.2470994310913286	-0.217830119214128	1.9219614787040522	-0.5486730879932146	-1.5775093108396456	1.8846180980400193	0.869384564889706	-1.4687916260731302	1.8920246489630776	0.71680638981633	-0.13531578235991398	1.9150731496061733	-0.7590683685138486	-0.16165909387613114	1.8508316086719654	-0.7323161574644059
2	0.06666666666666667	-0.17172783605901232	1.8270369394698005	-0.6261450408898401	-0.18354414616241696	1.816292556913738	-0.5576463946574793	-0.1672464613523397	1.6889538063082097	-0.51701252894081	-0.1700920595168553	1.5606538605203257	-0.5097226308585598	-0.21329787585534113	1.5378946219331433	-0.49108845956302455	-0.21306247296886335	1.5468149799298108	-0.4205733648515404	-0.1733598317485177	1.5598428084911766	-0.5185685749905015	-0.1510853516014192	1.8283395916666498	-0.691634659278925	-0.14114622895850035	1.6865231184680927	-0.6602673848203735	-0.13025929972256559	1.560292578806214	-0.6516878103216657	-0.17323335998047204	1.5367871411716716	-0.6545229181940815	-0.2813219466068725	1.4759313878576805	-1.1174592698512376	-0.25066810275717827	1.5030440840825885	-1.1847761685116331	-1.6022970389467388	1.8904055103871718	0.9288351228710973	-0.19746029276525554	2.032125205891754	-0.6241189904729332	-1.767964814810011	1.8898120999558001	1.2094793680813785	-0.21076223741037242	1.9214023285917123	-0.5522770087261066	-1.6052710459491957	1.8875068237502834	0.9187465228794881	-1.4452032950021536	1.8920425022400191	0.6797868688972839	-0.13038018851462196	1.914216078537199	-0.7635769381638435	-0.16144121898436845	1.848371366133636	-0.7321494271197138
3	0.1	-0.16472669540638574	1.8274375863209134	-0.6300791212470372	-0.1774806890655851	1.8192845986737165	-0.564859979733573	-0.1668976633520149	1.6917842893760764	-0.5264094578300447	-0.1706853248714241	1.5646949929753555	-0.5088710794970764	-0.21340465756036509	1.538200982537206	-0.4908925370820873	-0.21159568004396198	1.5479379006283345	-0.42652811697924603	-0.17117764109899913	1.5616664902835289	-0.516307962527015	-0.14657693505798228	1.828548752738738	-0.6963687720694138	-0.13885579541819507	1.6893249526524818	-0.6631138658122009	-0.13012664048034941	1.5626801164538067	-0.6520625423179109	-0.17432540183592662	1.5382560279009534	-0.6495795843133603	-0.2836664979898016	1.479284785423141	-1.114504025481212	-0.25059025156107745	1.5022103808624423	-1.1849952013222833	-1.5908487933378523	1.89088281147249	0.9098438350393322	-0.19316228942962016	2.031977497864045	-0.6286843393335888	-1.7574016916193185	1.8899813707691386	1.1909710021333024	-0.20369435560661683	1.9208431784793725	-0.5558809294589987	-1.5580139039651473	1.887045681508837	0.8364970368296213	-1.4117759974436028	1.8933332237351006	0.6260583991511921	-0.12544459466932995	1.913359007468225	-0.7680855078138384	-0.16122334409260575	1.8459111235953067	-0.7319826967750216
4	0.13333333333333333	-0.15772555475375916	1.8278382331720262	-0.6340132016042344	-0.17141723196875322	1.822276640433695	-0.5720735648096668	-0.16654886535169008	1.694614772443943	-0.5358063867192794	-0.1712785902259929	1.5687361254303853	-0.508019528135593	-0.21351143926538904	1.5385073431412688	-0.49069661460115005	-0.2101288871190606	1.5490608213268582	-0.43248286910695166	-0.16899545044948056	1.5634901720758811	-0.5140473500635286	-0.14206851851454536	1.8287579138108263	-0.7011028848599027	-0.13656536187788978	1.692126786836871	-0.6659603468040283	-0.12999398123813324	1.5650676541013993	-0.6524372743141562	-0.1754174436913812	1.5397249146302352	-0.6446362504326391	-0.2860110493727307	1.4826381829886015	-1.1115487811111864	-0.25051240036497663	1.501376677642296	-1.1852142341329335	-1.5877668062376509	1.8908263166402144	0.906485317340742	-0.18886428609398478	2.031829789836336	-0.6332496881942444	-1.7558892118838538	1.8899136958218716	1.18931864192618	-0.19662647380286125	1.9202840283670326	-0.5594848501918908	-1.5523735778526546	1.88502724272454	0.82992315169074	-1.3999370966835545	1.893630513651282	0.6076822428227137	-0.12050900082403794	1.9125019363992508	-0.7725940774638334	-0.16100546920084305	1.8434508810569774	-0.7318159664303294
5	0.16666666666666666	-0.15072441410113258	1.828238880023139	-0.6379472819614315	-0.16535377487192135	1.8252686821936734	-0.5792871498857605	-0.16620006735136528	1.6974452555118098	-0.5452033156085141	-0.1718718555805617	1.5727772578854151	-0.5071679767741096	-0.213618220970413	1.5388137037453316	-0.4905006921202128	-0.20866209419415924	1.550183742025382	-0.4384376212346573	-0.16681325979996198	1.5653138538682334	-0.5117867376000422	-0.13756010197110843	1.8289670748829145	-0.7058369976503915	-0.1342749283375845	1.6949286210212602	-0.6688068277958557	-0.12986132199591707	1.5674551917489918	-0.6528120063104015	-0.1765094855468358	1.541193801359517	-0.6396929165519178	-0.2883556007556598	1.485991580554062	-1.1085935367411608	-0.2504345491688758	1.50054297442215	-1.1854332669435836	-0.14070083995032137	1.9829195154223	-0.6606868297688897	-0.1845662827583494	2.031682081808627	-0.6378150370549001	-1.7542439674421506	1.8899546325290273	1.1874079503366122	-0.18955859199910566	1.9197248782546927	-0.5630887709247828	-0.18755242459455737	1.984929239316261	-0.6092937304181918	-0.12697882188924653	1.9867306796679944	-0.7390827574185685	-0.11557340697874592	1.9116448653302767	-0.7771026471138283	-0.16078759430908035	1.840990638518648	-0.7316492360856373
